<svg width="14" height="8" viewBox="0 0 14 8" fill="none" xmlns="http://www.w3.org/2000/svg">
<path d="M7.00018 7.99999C6.86858 8.00076 6.73812 7.97553 6.61628 7.92577C6.49444 7.876 6.38362 7.80268 6.29018 7.70999L0.290185 1.70999C0.101882 1.52169 -0.00390625 1.2663 -0.00390625 0.999995C-0.00390625 0.733693 0.101882 0.478298 0.290185 0.289995C0.478489 0.101691 0.733884 -0.00409698 1.00019 -0.00409698C1.26649 -0.00409698 1.52188 0.101691 1.71019 0.289995L7.00018 5.58999L12.2902 0.299995C12.4815 0.136169 12.7276 0.050562 12.9792 0.0602832C13.2309 0.0700043 13.4697 0.174337 13.6477 0.352432C13.8258 0.530526 13.9302 0.769265 13.9399 1.02094C13.9496 1.27262 13.864 1.51869 13.7002 1.70999L7.70018 7.70999C7.51392 7.89474 7.26252 7.99889 7.00018 7.99999Z" fill="#292929"/>
</svg>
