<?xml version="1.0" encoding="UTF-8"?>
<svg version="1.1" xmlns="http://www.w3.org/2000/svg" width="220" height="229">
<path d="M0 0 C72.6 0 145.2 0 220 0 C220 75.57 220 151.14 220 229 C147.4 229 74.8 229 0 229 C0 153.43 0 77.86 0 0 Z " fill="#FF2C1F" transform="translate(0,0)"/>
<path d="M0 0 C56.76 0 113.52 0 172 0 C172 75.57 172 151.14 172 229 C99.4 229 26.8 229 -48 229 C-48 210.85 -48 192.7 -48 174 C-47.67 174.66 -47.34 175.32 -47 176 C-45.34649935 176.69868292 -43.67671452 177.35902368 -42 178 C-40.05285831 179.0136369 -38.12161959 180.05813589 -36.203125 181.125 C-34.53141235 182.053125 -34.53141235 182.053125 -32.82592773 183 C-31.63381662 183.66642487 -30.4418437 184.333097 -29.25 185 C-28.3379631 185.50853516 -28.3379631 185.50853516 -27.40750122 186.02734375 C-19.72555649 190.31073542 -12.0778619 194.64491384 -4.51831055 199.14160156 C3.18807844 203.72525723 10.96755621 208.18234964 18.74243164 212.6484375 C19.79551514 213.25429687 20.84859863 213.86015625 21.93359375 214.484375 C23.46862549 215.36125977 23.46862549 215.36125977 25.03466797 216.25585938 C26.98183067 217.40113604 28.90454676 218.58924219 30.79736328 219.82226562 C31.65958496 220.38107422 32.52180664 220.93988281 33.41015625 221.515625 C34.15531494 222.01868164 34.90047363 222.52173828 35.66821289 223.04003906 C38.85018118 224.35000653 40.70924551 223.89200621 44 223 C46.47998858 221.88771182 46.47998858 221.88771182 48.8515625 220.40234375 C49.77050293 219.85650635 50.68944336 219.31066895 51.63623047 218.74829102 C53.11567139 217.85194946 53.11567139 217.85194946 54.625 216.9375 C56.78566379 215.65230911 58.94715585 214.36850992 61.109375 213.0859375 C62.23794922 212.41401367 63.36652344 211.74208984 64.52929688 211.04980469 C69.69103844 207.9900394 74.90753937 205.02550372 80.12319946 202.05895996 C83.05109042 200.39351573 85.97673327 198.72413357 88.90234375 197.0546875 C89.48324265 196.72327759 90.06414154 196.39186768 90.66264343 196.05041504 C97.26504437 192.28149247 103.85247568 188.48667868 110.4375 184.6875 C111.52724121 184.0591626 112.61698242 183.4308252 113.73974609 182.78344727 C117.87333008 180.39768177 117.87333008 180.39768177 122 178 C122.93416748 177.66057373 123.86833496 177.32114746 124.83081055 176.97143555 C127.18620038 175.24872777 127.18620038 175.24872777 127.30754089 172.93077087 C127.29298903 170.08519504 127.11390243 167.2827647 126.8984375 164.4453125 C126.79871817 162.28689116 126.7071947 160.12807861 126.62304688 157.96899414 C126.57784912 156.84751984 126.53265137 155.72604553 126.48608398 154.57058716 C125.69176541 129.93252704 125.69176541 129.93252704 130.00878906 122.57763672 C135.16994955 117.81689413 141.28345872 115.80160888 147.95800781 113.95556641 C152.71919707 112.45995688 156.68706884 109.91058422 160.875 107.25 C162.24529118 106.43914105 163.6174763 105.63146757 164.9921875 104.828125 C167.78660515 103.29239229 167.78660515 103.29239229 169 102 C169.16105935 100.41792965 169.25433297 98.82888847 169.31982422 97.23999023 C169.36170868 96.2248082 169.40359314 95.20962616 169.44674683 94.16368103 C169.59704373 89.49204794 169.704396 84.82047376 169.78955078 80.1472168 C169.8462447 77.68589068 169.92804303 75.22500733 170.03564453 72.76538086 C171.22493615 59.0793323 171.22493615 59.0793323 166.55371094 46.85961914 C163.72104614 45.1039976 161.0323223 43.82124867 157.88922119 42.72555542 C154.625766 41.47222542 151.75212517 39.5757746 148.78125 37.75390625 C147.57274765 37.05113421 146.36179799 36.35255375 145.1484375 35.65820312 C143.30497527 34.60051543 141.46291124 33.54091643 139.62597656 32.47192383 C137.80662599 31.41317211 135.98217321 30.36377242 134.15625 29.31640625 C133.09212891 28.70224854 132.02800781 28.08809082 130.93164062 27.45532227 C128.08489827 26.04214512 126.16833929 25.12677077 123 25 C119.98332533 26.18447353 119.98332533 26.18447353 116.9140625 28.0859375 C116.04580338 28.58874741 116.04580338 28.58874741 115.16000366 29.10171509 C113.30676707 30.17939067 111.46609013 31.27672953 109.625 32.375 C107.82618729 33.42645639 106.02513049 34.47394073 104.22305298 35.51979065 C103.00930304 36.23512646 101.80382877 36.96467892 100.60678101 37.70762634 C97.3974248 39.68816437 94.29246347 41.33310204 90.77197266 42.69750977 C86.54652553 44.47199199 82.72740429 46.18822804 80 50 C77.63357644 57.71001806 78.67352804 66.25125126 79.125 74.1875 C79.28014343 77.48959788 79.41258597 80.78752233 79.49118042 84.09236145 C79.54283673 86.14087374 79.63960889 88.18888364 79.78738403 90.23271179 C79.87612778 93.07590822 79.8380852 95.27888567 79 98 C76.34993221 100.72323434 73.3787135 102.31550177 70 104 C68.91074219 104.64888184 67.82148437 105.29776367 66.69921875 105.96630859 C65.70535156 106.52141113 64.71148437 107.07651367 63.6875 107.6484375 C62.59308594 108.26074219 61.49867187 108.87304688 60.37109375 109.50390625 C58.70240234 110.43009766 58.70240234 110.43009766 57 111.375 C55.85660156 112.01566406 54.71320313 112.65632813 53.53515625 113.31640625 C45.13664379 118 45.13664379 118 44 118 C43.67 87.31 43.34 56.62 43 25 C41.35 24.34 39.7 23.68 38 23 C36.1516517 22.03607277 34.31914876 21.04139866 32.5 20.0234375 C30.92980103 19.14594849 30.92980103 19.14594849 29.32788086 18.25073242 C28.22968018 17.63174072 27.13147949 17.01274902 26 16.375 C24.88181885 15.74634033 23.7636377 15.11768066 22.61157227 14.4699707 C5.61554256 4.87394288 5.61554256 4.87394288 0 1 C0 0.67 0 0.34 0 0 Z " fill="#FFFEFE" transform="translate(48,0)"/>
<path d="M0 0 C1.90324752 0.94365668 3.80557492 1.88916926 5.70751953 2.83544922 C7.296707 3.62494461 7.296707 3.62494461 8.91799927 4.4303894 C12.99994842 6.50925674 16.94511148 8.77448177 20.875 11.125 C21.58140625 11.54136719 22.2878125 11.95773438 23.015625 12.38671875 C25.02133472 13.57597786 27.02036652 14.76773588 29 16 C30.01931107 16.49717529 31.03862213 16.99435059 32.08882141 17.5065918 C35 20 35 20 35.5357132 21.88053703 C35.71707138 24.3302353 35.70419739 26.71589853 35.63012695 29.17138672 C35.62630005 30.09867584 35.62247314 31.02596497 35.61853027 31.98135376 C35.60685901 33.99379909 35.58163679 36.00620096 35.54448891 38.01833725 C35.48783306 41.20489561 35.47093674 44.38941504 35.46513367 47.57644653 C35.44104291 56.63544202 35.3416218 65.693261 35.22338867 74.75146484 C35.15379784 80.29355056 35.1278588 85.83451867 35.12755394 91.37701797 C35.118073 93.48785378 35.09122025 95.59868614 35.04662514 97.70907211 C34.28187484 108.64792142 34.28187484 108.64792142 37.83244324 118.52481079 C40.18407657 120.13449042 42.31144071 121.08078231 45 122 C46.12365967 122.65822754 47.24731934 123.31645508 48.4050293 123.99462891 C49.45086182 124.56616699 50.49669434 125.13770508 51.57421875 125.7265625 C52.43271172 126.19900894 52.43271172 126.19900894 53.30854797 126.68099976 C55.0994766 127.66613818 56.893178 128.64605797 58.6875 129.625 C60.49225367 130.6115696 62.29628369 131.5993841 64.09858704 132.59042358 C65.72516368 133.48460853 67.35408528 134.37452404 68.9831543 135.26416016 C69.97871338 135.8369873 70.97427246 136.40981445 72 137 C73.10529053 137.54285645 74.21058105 138.08571289 75.34936523 138.64501953 C78.23766666 141.2111571 78.40764783 141.51743615 78.68115234 145.12597656 C78.68020589 146.79782706 78.64650059 148.46987155 78.5859375 150.140625 C78.57744781 151.02280701 78.56895813 151.90498901 78.56021118 152.81390381 C78.52666558 155.62718675 78.45138774 158.43758606 78.375 161.25 C78.34490173 163.15881272 78.31752568 165.06767045 78.29296875 166.9765625 C78.2268708 171.65215004 78.12334379 176.32558645 78 181 C74.08052503 179.79144199 70.66965476 178.40287385 67.1484375 176.3046875 C66.22901367 175.76183105 65.30958984 175.21897461 64.36230469 174.65966797 C63.37649414 174.07072754 62.39068359 173.48178711 61.375 172.875 C59.22210493 171.60289523 57.06842646 170.33211556 54.9140625 169.0625 C53.78645508 168.39734375 52.65884766 167.7321875 51.49707031 167.046875 C47.98043214 164.98171611 44.44293251 162.95439264 40.8984375 160.9375 C40.00389359 160.4283757 40.00389359 160.4283757 39.09127808 159.90896606 C36.22848364 158.28103418 33.36382213 156.65648861 30.49755859 155.03466797 C28.33232308 153.80382408 26.18541204 152.54013814 24.05886841 151.24359131 C21.11694803 149.5200936 18.17412067 148.26671007 14.98718262 147.06161499 C9.17377203 144.62264799 4.00705487 141.9890888 0 137 C-3.38001804 127.95772608 -2.39603255 117.62997806 -2.02787876 108.11898708 C-1.90193642 104.31207702 -1.89103684 100.50477755 -1.86737061 96.69610596 C-1.80545793 89.5005719 -1.64173868 82.31119166 -1.44038081 75.11835599 C-1.21599842 66.92321923 -1.10666969 58.72777131 -1.00647211 50.53032255 C-0.79799899 33.68329151 -0.44676953 16.84243339 0 0 Z " fill="#FFFDFD" transform="translate(7,34)"/>
<path d="M0 0 C0 29.37 0 58.74 0 89 C-8.25 93.62 -16.5 98.24 -25 103 C-28.3 104.98 -31.6 106.96 -35 109 C-35.33 109 -35.66 109 -36 109 C-36 79.63 -36 50.26 -36 20 C-27.42 15.05 -18.84 10.1 -10 5 C-2 0 -2 0 0 0 Z " fill="#FFFAFA" transform="translate(85,34)"/>
<path d="M0 0 C1.67628925 1.09357918 3.33140851 2.22001863 4.96875 3.37109375 C7.03547993 4.53527708 9.1115343 5.68302025 11.1953125 6.81640625 C13.3300463 8.03962182 15.46284187 9.26622576 17.59375 10.49609375 C18.69332031 11.11613281 19.79289062 11.73617187 20.92578125 12.375 C21.96347656 12.97441406 23.00117188 13.57382813 24.0703125 14.19140625 C25.01213379 14.73039551 25.95395508 15.26938477 26.92431641 15.82470703 C27.59897949 16.33501465 28.27364258 16.84532227 28.96875 17.37109375 C28.96875 18.36109375 28.96875 19.35109375 28.96875 20.37109375 C26.12427259 21.99650942 23.27979274 23.62192083 20.43530273 25.24731445 C17.92694929 26.68065331 15.41865543 28.11409636 12.91040039 29.54760742 C7.06143287 32.89028707 1.21233704 36.23273687 -4.63877869 39.57165527 C-5.84719045 40.26132444 -7.05549398 40.95118329 -8.26368713 41.64123535 C-11.20956864 43.32372173 -14.15669241 45.00393799 -17.10668945 46.67919922 C-22.3905644 49.68663697 -27.64670575 52.72222579 -32.8359375 55.890625 C-33.7117749 56.41938232 -34.5876123 56.94813965 -35.48999023 57.49291992 C-37.0901361 58.46328318 -38.68159976 59.44817999 -40.26196289 60.45043945 C-40.95797607 60.870271 -41.65398926 61.29010254 -42.37109375 61.72265625 C-42.96269287 62.09213379 -43.55429199 62.46161133 -44.16381836 62.84228516 C-48.61986464 64.10412281 -53.55285096 60.0646487 -57.3203125 57.96484375 C-57.90541595 57.63947632 -58.49051941 57.31410889 -59.09335327 56.97888184 C-60.32278359 56.29445375 -61.55141987 55.60859759 -62.77929688 54.92138672 C-64.655736 53.87138137 -66.53466935 52.82595705 -68.4140625 51.78125 C-77.57097362 46.67794467 -77.57097362 46.67794467 -81.03125 44.37109375 C-79.81541075 40.723576 -79.02837003 40.51853632 -75.74609375 38.7265625 C-74.83577393 38.22213623 -73.9254541 37.71770996 -72.98754883 37.19799805 C-71.99134521 36.65699463 -70.9951416 36.11599121 -69.96875 35.55859375 C-67.84548372 34.38308129 -65.72311414 33.20594795 -63.6015625 32.02734375 C-62.5074707 31.42148438 -61.41337891 30.815625 -60.28613281 30.19140625 C-56.24491282 27.93133002 -52.24393745 25.60780041 -48.25073242 23.26416016 C-46.30409992 22.1220442 -44.35368828 20.98634645 -42.3996582 19.85693359 C-37.39419607 16.96016586 -32.43205034 14.01492869 -27.53623962 10.93711853 C-25.03627837 9.37346057 -22.51742055 7.84196364 -19.99545288 6.31411743 C-18.78086972 5.56753583 -17.57497323 4.80661167 -16.3788147 4.03085327 C-5.80054545 -2.8171087 -5.80054545 -2.8171087 0 0 Z " fill="#FFFCFC" transform="translate(135.03125,105.62890625)"/>
<path d="M0 0 C0.66 0 1.32 0 2 0 C2.32296056 5.54957083 2.55788727 11.09362094 2.71411133 16.65039062 C2.77924271 18.5367764 2.86778972 20.42251172 2.98071289 22.30664062 C3.88972114 37.87083616 3.88972114 37.87083616 -0.48364258 42.79833984 C-3.8955089 44.91430976 -7.29483923 46.46061287 -11 48 C-13.20035491 49.23358889 -15.38441639 50.49671325 -17.55078125 51.7890625 C-19.80363323 53.06956494 -22.05757091 54.34815884 -24.3125 55.625 C-26.76526035 57.01918926 -29.21677057 58.41556634 -31.66796875 59.8125 C-32.58642578 60.33573349 -32.58642578 60.33573349 -33.5234375 60.86953735 C-39.74536023 64.41793907 -45.93915216 68.0141036 -52.125 71.625 C-53.07673096 72.18010254 -54.02846191 72.73520508 -55.0090332 73.30712891 C-60.37911044 76.44647062 -65.71009993 79.63782698 -70.99951172 82.91162109 C-73 84 -73 84 -75 84 C-75 70.47 -75 56.94 -75 43 C-71.37 40.97875 -67.74 38.9575 -64 36.875 C-54.29228541 31.45332817 -44.66293984 25.91476227 -35.07592773 20.28198242 C-26.37085252 15.18178508 -17.57836339 10.24680048 -8.75585938 5.35351562 C-7.75490234 4.79728516 -6.75394531 4.24105469 -5.72265625 3.66796875 C-4.38859741 2.92969849 -4.38859741 2.92969849 -3.02758789 2.17651367 C-1.07239978 1.15797255 -1.07239978 1.15797255 0 0 Z " fill="#FFFDFD" transform="translate(167,131)"/>
<path d="M0 0 C0.32296056 5.54957083 0.55788727 11.09362094 0.71411133 16.65039062 C0.77924271 18.5367764 0.86778972 20.42251172 0.98071289 22.30664062 C1.70481259 34.70480018 1.70481259 34.70480018 0 40 C-3.73334666 44.14127508 -7.90645027 45.90197993 -13 48 C-14.94845595 49.10517472 -16.88097831 50.23912347 -18.79296875 51.40625 C-20.58988175 52.43970104 -22.38804134 53.4709879 -24.1875 54.5 C-25.11369141 55.03625 -26.03988281 55.5725 -26.99414062 56.125 C-27.87650391 56.6303125 -28.75886719 57.135625 -29.66796875 57.65625 C-30.45453857 58.10806641 -31.2411084 58.55988281 -32.05151367 59.02539062 C-34 60 -34 60 -36 60 C-39.80837217 25.50493672 -39.80837217 25.50493672 -33.80566406 16.828125 C-28.26170988 12.0910919 -21.9118227 9.50098581 -15.06738281 7.16308594 C-11.02420028 5.62999762 -7.55620117 3.48653256 -3.93896484 1.14111328 C-2 0 -2 0 0 0 Z " fill="#FFFAF9" transform="translate(212,58)"/>
<path d="M0 0 C1.94874821 0.94024737 3.86262346 1.95453154 5.74609375 3.01953125 C6.83083984 3.62990234 7.91558594 4.24027344 9.03320312 4.86914062 C10.15662109 5.51044922 11.28003906 6.15175781 12.4375 6.8125 C13.55705078 7.44220703 14.67660156 8.07191406 15.83007812 8.72070312 C26.64089197 14.83506846 26.64089197 14.83506846 31 18 C31 18.66 31 19.32 31 20 C27.42548451 22.0631792 23.85085438 24.12615964 20.27612305 26.18896484 C19.06287623 26.88910701 17.84965944 27.58930122 16.63647461 28.28955078 C16.04938721 28.62841309 15.4622998 28.96727539 14.85742188 29.31640625 C14.2778775 29.65111938 13.69833313 29.98583252 13.10122681 30.33068848 C11.40239838 31.31007761 9.70097726 32.28496509 7.99951172 33.25976562 C6.23125579 34.28565918 4.47273702 35.32926896 2.73876953 36.41210938 C-1.52385637 39.05732769 -1.52385637 39.05732769 -3.83105469 38.77954102 C-6.60950211 37.78093874 -9.04324428 36.43535388 -11.61328125 34.98046875 C-12.69673828 34.37009766 -13.78019531 33.75972656 -14.89648438 33.13085938 C-16.02376953 32.48955078 -17.15105469 31.84824219 -18.3125 31.1875 C-19.42818359 30.55779297 -20.54386719 29.92808594 -21.69335938 29.27929688 C-27.13861803 26.20322604 -32.57335083 23.10877305 -38 20 C-38 19.34 -38 18.68 -38 18 C-37.03344482 17.45641846 -37.03344482 17.45641846 -36.04736328 16.90185547 C-33.07242391 15.22768637 -30.09870811 13.55135506 -27.125 11.875 C-26.11179687 11.30523437 -25.09859375 10.73546875 -24.0546875 10.1484375 C-23.04921875 9.58125 -22.04375 9.0140625 -21.0078125 8.4296875 C-20.00266602 7.86475586 -18.99751953 7.29982422 -17.96191406 6.71777344 C-14.30667262 4.59790212 -10.76652406 2.31459121 -7.24951172 -0.02685547 C-4.31230984 -1.29749653 -3.02175548 -0.9923508 0 0 Z " fill="#FFFCFC" transform="translate(49,9)"/>
<path d="M0 0 C1.94874821 0.94024737 3.86262346 1.95453154 5.74609375 3.01953125 C6.83083984 3.62990234 7.91558594 4.24027344 9.03320312 4.86914062 C10.15662109 5.51044922 11.28003906 6.15175781 12.4375 6.8125 C13.55705078 7.44220703 14.67660156 8.07191406 15.83007812 8.72070312 C26.64089197 14.83506846 26.64089197 14.83506846 31 18 C31 18.66 31 19.32 31 20 C30.17798096 20.46897705 29.35596191 20.9379541 28.5090332 21.42114258 C25.44302692 23.17070338 22.37730368 24.92075815 19.31176758 26.67114258 C17.98798654 27.42687299 16.66409483 28.18240957 15.34008789 28.93774414 C13.43085675 30.02698959 11.5220321 31.11694443 9.61328125 32.20703125 C9.02662186 32.54152786 8.43996246 32.87602448 7.83552551 33.22065735 C5.27829461 34.68188289 2.77844855 36.14969803 0.33666992 37.79956055 C-2 39 -2 39 -3.96166992 38.8762207 C-6.61799756 37.73434025 -9.09619526 36.40537859 -11.61328125 34.98046875 C-12.69673828 34.37009766 -13.78019531 33.75972656 -14.89648438 33.13085938 C-16.02376953 32.48955078 -17.15105469 31.84824219 -18.3125 31.1875 C-19.42818359 30.55779297 -20.54386719 29.92808594 -21.69335938 29.27929688 C-27.13861803 26.20322604 -32.57335083 23.10877305 -38 20 C-38 19.34 -38 18.68 -38 18 C-34.42548451 15.9368208 -30.85085438 13.87384036 -27.27612305 11.81103516 C-26.06287623 11.11089299 -24.84965944 10.41069878 -23.63647461 9.71044922 C-23.04938721 9.37158691 -22.4622998 9.03272461 -21.85742188 8.68359375 C-21.27795807 8.34888062 -20.69849426 8.01416748 -20.10147095 7.66931152 C-18.40154317 6.68942688 -16.69859896 5.71478121 -14.99560547 4.74023438 C-13.23757852 3.71894537 -11.49077867 2.67697563 -9.77392578 1.58789062 C-5.97454146 -0.8056494 -4.28532003 -1.24959149 0 0 Z " fill="#FFFCFC" transform="translate(176,33)"/>
<path d="M0 0 C11.25937031 5.62968516 11.25937031 5.62968516 16.19140625 8.515625 C17.23748047 9.12664062 18.28355469 9.73765625 19.36132812 10.3671875 C20.41771484 10.98851563 21.47410156 11.60984375 22.5625 12.25 C23.65369141 12.88679688 24.74488281 13.52359375 25.86914062 14.1796875 C33.85925752 18.85925752 33.85925752 18.85925752 35 20 C35.08868299 22.95705321 35.11520296 25.89065056 35.09765625 28.84765625 C35.0962413 29.7340831 35.09482635 30.62050995 35.09336853 31.53379822 C35.08775215 34.37673254 35.07519691 37.21958931 35.0625 40.0625 C35.05748711 41.98502491 35.05292384 43.90755104 35.04882812 45.83007812 C35.03777741 50.55341549 35.02050183 55.27669458 35 60 C30.90012619 58.4878574 27.2407352 56.51996897 23.45703125 54.33984375 C22.84736008 53.9899086 22.2376889 53.63997345 21.60954285 53.2794342 C19.67541897 52.16851124 17.74389229 51.05316393 15.8125 49.9375 C13.8698627 48.81921578 11.9267061 47.70184023 9.98332214 46.58485413 C8.22732994 45.57496225 6.47264094 44.56280539 4.71801758 43.55053711 C3.16515962 42.66468416 1.59902552 41.79951276 0 41 C0 27.47 0 13.94 0 0 Z " fill="#FFFDFD" transform="translate(134,58)"/>
<path d="M0 0 C14.52 0 29.04 0 44 0 C40.22510001 3.01991999 36.92130983 5.32552324 32.7734375 7.6796875 C31.89094833 8.18255783 31.89094833 8.18255783 30.9906311 8.69558716 C29.12103404 9.75946463 27.2480446 10.81720665 25.375 11.875 C24.14171279 12.57644629 22.90863813 13.27826641 21.67578125 13.98046875 C14.48986144 18.06402625 7.25763449 22.04129028 0 26 C0 17.42 0 8.84 0 0 Z " fill="#FFFCFC" transform="translate(0,0)"/>
</svg>
