<svg xmlns="http://www.w3.org/2000/svg" width="18" height="16" viewBox="0 0 18 16" fill="none">
  <!-- Original eye icon paths -->
  <path d="M11.9833 7.99998C11.9833 9.64998 10.65 10.9833 8.99999 10.9833C7.34999 10.9833 6.01666 9.64998 6.01666 7.99998C6.01666 6.34998 7.34999 5.01664 8.99999 5.01664C10.65 5.01664 11.9833 6.34998 11.9833 7.99998Z" stroke="#414141" stroke-width="1.5" stroke-linecap="round" stroke-linejoin="round"/>
  <path d="M8.99999 14.8916C11.9417 14.8916 14.6833 13.1583 16.5917 10.1583C17.3417 8.98331 17.3417 7.00831 16.5917 5.83331C14.6833 2.83331 11.9417 1.09998 8.99999 1.09998C6.05832 1.09998 3.31666 2.83331 1.40833 5.83331C0.658325 7.00831 0.658325 8.98331 1.40833 10.1583C3.31666 13.1583 6.05832 14.8916 8.99999 14.8916Z" stroke="#414141" stroke-width="1.5" stroke-linecap="round" stroke-linejoin="round"/>
  
  <!-- Diagonal slash line -->
  <line x1="3" y1="3" x2="15" y2="13" stroke="#414141" stroke-width="1.5" stroke-linecap="round"/>
</svg>